HIERARCHY
ROOT Root
{
  OFFSET 0.0 0.0 0.0
  CHANNELS 6 Xposition Yposition Zposition Zrotation Yrotation Xrotation
  JOINT Hips
  {
    OFFSET 0.0 100.0 0.0
    CHANNELS 6 Xposition Yposition Zposition Zrotation Yrotation Xrotation
    JOINT Spine1
    {
      OFFSET -0.013727 5.003763 -0.053727
      CHANNELS 3 Zrotation Yrotation Xrotation
      JOINT Spine2
      {
        OFFSET -0.0 7.125301 -0.029825
        CHANNELS 3 Zrotation Yrotation Xrotation
        JOINT Chest
        {
          OFFSET -1e-06 7.550063 -0.815971
          CHANNELS 3 Zrotation Yrotation Xrotation
          JOINT Neck1
          {
            OFFSET -0.181677 26.311295 -0.553348
            CHANNELS 3 Zrotation Yrotation Xrotation
            JOINT Neck2
            {
              OFFSET -3e-06 7.709397 2.302585
              CHANNELS 3 Zrotation Yrotation Xrotation
              JOINT Head
              {
                OFFSET -5e-06 6.128916 1.953709
                CHANNELS 3 Zrotation Yrotation Xrotation
                JOINT HeadEnd
                {
                  OFFSET 0.003598 16.065403 -1.835379
                  CHANNELS 3 Zrotation Yrotation Xrotation
                }
                JOINT Jaw
                {
                  OFFSET 0.002637 0.475592 3.094941
                  CHANNELS 3 Zrotation Yrotation Xrotation
                }
                JOINT LeftEye
                {
                  OFFSET 3.206381 5.380205 7.586883
                  CHANNELS 3 Zrotation Yrotation Xrotation
                }
                JOINT RightEye
                {
                  OFFSET -3.22244 5.361869 7.558234
                  CHANNELS 3 Zrotation Yrotation Xrotation
                }
              }
            }
          }
          JOINT LeftShoulder
          {
            OFFSET 1.621652 23.237164 5.113413
            CHANNELS 3 Zrotation Yrotation Xrotation
            JOINT LeftArm
            {
              OFFSET 14.919846 2e-06 -5.502326
              CHANNELS 3 Zrotation Yrotation Xrotation
              JOINT LeftForeArm
              {
                OFFSET 28.739307 0.0 -0.002588
                CHANNELS 3 Zrotation Yrotation Xrotation
                JOINT LeftHand
                {
                  OFFSET 27.093981 -1e-06 0.002609
                  CHANNELS 3 Zrotation Yrotation Xrotation
                  JOINT LeftHandThumb1
                  {
                    OFFSET 2.276482 -1.392045 3.191413
                    CHANNELS 3 Zrotation Yrotation Xrotation
                    JOINT LeftHandThumb2
                    {
                      OFFSET 4.012836 -1.828127 1.641654
                      CHANNELS 3 Zrotation Yrotation Xrotation
                      JOINT LeftHandThumb3
                      {
                        OFFSET 2.798515 0.0 -3e-06
                        CHANNELS 3 Zrotation Yrotation Xrotation
                        JOINT LeftHandThumbEnd
                        {
                          OFFSET 3.180793 -4e-06 4e-06
                          CHANNELS 3 Zrotation Yrotation Xrotation
                        }
                      }
                    }
                  }
                  JOINT LeftHandIndex1
                  {
                    OFFSET 3.247555 -0.531998 2.296169
                    CHANNELS 3 Zrotation Yrotation Xrotation
                    JOINT LeftHandIndex2
                    {
                      OFFSET 6.364578 0.01206 0.1786
                      CHANNELS 3 Zrotation Yrotation Xrotation
                      JOINT LeftHandIndex3
                      {
                        OFFSET 3.662364 0.0 0.0
                        CHANNELS 3 Zrotation Yrotation Xrotation
                        JOINT LeftHandIndex4
                        {
                          OFFSET 2.329242 4e-06 4e-06
                          CHANNELS 3 Zrotation Yrotation Xrotation
                          JOINT LeftHandIndexEnd
                          {
                            OFFSET 2.759615 -0.180537 -0.113024
                            CHANNELS 3 Zrotation Yrotation Xrotation
                          }
                        }
                      }
                    }
                  }
                  JOINT LeftHandMiddle1
                  {
                    OFFSET 3.163495 0.240981 1.000332
                    CHANNELS 3 Zrotation Yrotation Xrotation
                    JOINT LeftHandMiddle2
                    {
                      OFFSET 6.19078 -0.259278 -1.002548
                      CHANNELS 3 Zrotation Yrotation Xrotation
                      JOINT LeftHandMiddle3
                      {
                        OFFSET 4.35652 -4e-06 -1e-06
                        CHANNELS 3 Zrotation Yrotation Xrotation
                        JOINT LeftHandMiddle4
                        {
                          OFFSET 2.996877 -8e-06 0.0
                          CHANNELS 3 Zrotation Yrotation Xrotation
                          JOINT LeftHandMiddleEnd
                          {
                            OFFSET 2.304287 -0.294569 -0.031741
                            CHANNELS 3 Zrotation Yrotation Xrotation
                          }
                        }
                      }
                    }
                  }
                  JOINT LeftHandRing1
                  {
                    OFFSET 2.882643 -0.053652 -0.322543
                    CHANNELS 3 Zrotation Yrotation Xrotation
                    JOINT LeftHandRing2
                    {
                      OFFSET 5.854541 -0.486202 -1.373841
                      CHANNELS 3 Zrotation Yrotation Xrotation
                      JOINT LeftHandRing3
                      {
                        OFFSET 4.350578 0.0 3e-06
                        CHANNELS 3 Zrotation Yrotation Xrotation
                        JOINT LeftHandRing4
                        {
                          OFFSET 2.651321 7e-06 2e-06
                          CHANNELS 3 Zrotation Yrotation Xrotation
                          JOINT LeftHandRingEnd
                          {
                            OFFSET 1.936105 0.077687 -7.1e-05
                            CHANNELS 3 Zrotation Yrotation Xrotation
                          }
                        }
                      }
                    }
                  }
                  JOINT LeftHandPinky1
                  {
                    OFFSET 2.8655 -0.310005 -1.600378
                    CHANNELS 3 Zrotation Yrotation Xrotation
                    JOINT LeftHandPinky2
                    {
                      OFFSET 5.087849 -1.331141 -1.77123
                      CHANNELS 3 Zrotation Yrotation Xrotation
                      JOINT LeftHandPinky3
                      {
                        OFFSET 3.070974 4e-06 0.0
                        CHANNELS 3 Zrotation Yrotation Xrotation
                        JOINT LeftHandPinky4
                        {
                          OFFSET 1.549672 0.0 1e-06
                          CHANNELS 3 Zrotation Yrotation Xrotation
                          JOINT LeftHandPinkyEnd
                          {
                            OFFSET 1.944893 -0.157802 0.057219
                            CHANNELS 3 Zrotation Yrotation Xrotation
                          }
                        }
                      }
                    }
                  }
                }
              }
            }
          }
          JOINT RightShoulder
          {
            OFFSET -1.380118 23.180309 5.214158
            CHANNELS 3 Zrotation Yrotation Xrotation
            JOINT RightArm
            {
              OFFSET -15.037196 1.2e-05 -5.545604
              CHANNELS 3 Zrotation Yrotation Xrotation
              JOINT RightForeArm
              {
                OFFSET -28.736639 2e-06 -0.002597
                CHANNELS 3 Zrotation Yrotation Xrotation
                JOINT RightHand
                {
                  OFFSET -27.133619 -0.0 0.002613
                  CHANNELS 3 Zrotation Yrotation Xrotation
                  JOINT RightHandThumb1
                  {
                    OFFSET -2.274032 -1.383988 3.163127
                    CHANNELS 3 Zrotation Yrotation Xrotation
                    JOINT RightHandThumb2
                    {
                      OFFSET -4.011429 -1.827466 1.640914
                      CHANNELS 3 Zrotation Yrotation Xrotation
                      JOINT RightHandThumb3
                      {
                        OFFSET -2.794935 -4e-06 -3e-06
                        CHANNELS 3 Zrotation Yrotation Xrotation
                        JOINT RightHandThumbEnd
                        {
                          OFFSET -3.183852 4e-06 1e-06
                          CHANNELS 3 Zrotation Yrotation Xrotation
                        }
                      }
                    }
                  }
                  JOINT RightHandIndex1
                  {
                    OFFSET -3.253266 -0.520057 2.282866
                    CHANNELS 3 Zrotation Yrotation Xrotation
                    JOINT RightHandIndex2
                    {
                      OFFSET -6.341917 0.012471 0.178266
                      CHANNELS 3 Zrotation Yrotation Xrotation
                      JOINT RightHandIndex3
                      {
                        OFFSET -3.654871 -8e-06 -0.0
                        CHANNELS 3 Zrotation Yrotation Xrotation
                        JOINT RightHandIndex4
                        {
                          OFFSET -2.327586 0.0 1e-06
                          CHANNELS 3 Zrotation Yrotation Xrotation
                          JOINT RightHandIndexEnd
                          {
                            OFFSET -2.76179 -0.180656 -0.113078
                            CHANNELS 3 Zrotation Yrotation Xrotation
                          }
                        }
                      }
                    }
                  }
                  JOINT RightHandMiddle1
                  {
                    OFFSET -3.168106 0.246593 1.00103
                    CHANNELS 3 Zrotation Yrotation Xrotation
                    JOINT RightHandMiddle2
                    {
                      OFFSET -6.180828 -0.258836 -1.000895
                      CHANNELS 3 Zrotation Yrotation Xrotation
                      JOINT RightHandMiddle3
                      {
                        OFFSET -4.348901 0.0 -0.0
                        CHANNELS 3 Zrotation Yrotation Xrotation
                        JOINT RightHandMiddle4
                        {
                          OFFSET -3.00024 -4e-06 -2e-06
                          CHANNELS 3 Zrotation Yrotation Xrotation
                          JOINT RightHandMiddleEnd
                          {
                            OFFSET -2.30252 -0.29437 -0.031706
                            CHANNELS 3 Zrotation Yrotation Xrotation
                          }
                        }
                      }
                    }
                  }
                  JOINT RightHandRing1
                  {
                    OFFSET -2.88569 -0.067952 -0.308858
                    CHANNELS 3 Zrotation Yrotation Xrotation
                    JOINT RightHandRing2
                    {
                      OFFSET -5.854198 -0.48613 -1.373731
                      CHANNELS 3 Zrotation Yrotation Xrotation
                      JOINT RightHandRing3
                      {
                        OFFSET -4.33881 -4e-06 -0.0
                        CHANNELS 3 Zrotation Yrotation Xrotation
                        JOINT RightHandRing4
                        {
                          OFFSET -2.654903 -4e-06 4e-06
                          CHANNELS 3 Zrotation Yrotation Xrotation
                          JOINT RightHandRingEnd
                          {
                            OFFSET -1.933568 0.077527 -5.2e-05
                            CHANNELS 3 Zrotation Yrotation Xrotation
                          }
                        }
                      }
                    }
                  }
                  JOINT RightHandPinky1
                  {
                    OFFSET -2.866425 -0.342796 -1.584145
                    CHANNELS 3 Zrotation Yrotation Xrotation
                    JOINT RightHandPinky2
                    {
                      OFFSET -5.091371 -1.332055 -1.772385
                      CHANNELS 3 Zrotation Yrotation Xrotation
                      JOINT RightHandPinky3
                      {
                        OFFSET -3.062664 -4e-06 1e-06
                        CHANNELS 3 Zrotation Yrotation Xrotation
                        JOINT RightHandPinky4
                        {
                          OFFSET -1.546529 4e-06 -2e-06
                          CHANNELS 3 Zrotation Yrotation Xrotation
                          JOINT RightHandPinkyEnd
                          {
                            OFFSET -1.945119 -0.157718 0.057211
                            CHANNELS 3 Zrotation Yrotation Xrotation
                          }
                        }
                      }
                    }
                  }
                }
              }
            }
          }
        }
      }
    }
    JOINT LeftLeg
    {
      OFFSET 10.043214 -8.434526 2.595655
      CHANNELS 3 Zrotation Yrotation Xrotation
      JOINT LeftShin
      {
        OFFSET -1e-06 -43.221752 -0.802913
        CHANNELS 3 Zrotation Yrotation Xrotation
        JOINT LeftFoot
        {
          OFFSET 1e-06 -42.155094 -3.481523
          CHANNELS 3 Zrotation Yrotation Xrotation
          JOINT LeftToeBase
          {
            OFFSET 0.0 -5.059472 13.231529
            CHANNELS 3 Zrotation Yrotation Xrotation
            JOINT LeftToeEnd
            {
              OFFSET -0.009607 -1.647619 6.513017
              CHANNELS 3 Zrotation Yrotation Xrotation
            }
          }
        }
      }
    }
    JOINT RightLeg
    {
      OFFSET -10.047278 -8.29526 2.620317
      CHANNELS 3 Zrotation Yrotation Xrotation
      JOINT RightShin
      {
        OFFSET 1e-06 -43.362206 -0.805556
        CHANNELS 3 Zrotation Yrotation Xrotation
        JOINT RightFoot
        {
          OFFSET 2e-06 -42.117393 -3.478398
          CHANNELS 3 Zrotation Yrotation Xrotation
          JOINT RightToeBase
          {
            OFFSET -0.0 -5.079609 13.284196
            CHANNELS 3 Zrotation Yrotation Xrotation
            JOINT RightToeEnd
            {
              OFFSET 0.009532 -1.634378 6.460591
              CHANNELS 3 Zrotation Yrotation Xrotation
            }
          }
        }
      }
    }
  }
}
MOTION
Frames: 4
Frame Time: 0.03333333333333333
0.0 0.0 0.0 0.0 -0.0 0.0 22.715649 99.852539 631.015381 -2.502931 1.784419 -7.973419 0.888788 0.950223 2.684388 -0.171666 2.176979 -3.743992 0.619746 0.253813 12.719403 1.384401 2.045017 7.958509 0.038728 1.472411 -3.902885 1.213912 0.560399 -9.665945 7.7e-05 -2.3e-05 6e-06 -0.024538 -0.177391 0.010188 0.60848 -3.922202 -10.777196 -0.659547 3.573825 -10.777211 -8.168308 -1.257702 15.247079 -74.329865 -2.016718 5.82517 0.459816 -23.071236 -0.071841 16.009874 1.864938 -4.358571 -5.882104 9.861283 0.702589 -10.936871 -0.360576 7.156206 1e-06 8.774823 -1e-06 -16.622009 18.403704 5.871077 -1.844032 2.498504 -2.507278 -10.163597 4.678942 4.621109 -20.976021 -5e-06 2e-06 -21.22628 2.451694 -3.593999 -1e-06 -6e-06 -0.0 -1.362681 2.240798 -0.746324 -21.334911 0.584908 3.008323 -13.821213 -3e-06 2e-06 -23.887163 -0.24908 -0.839482 -61.224854 2.938377 -1.658013 -0.294025 1.679687 0.833256 -14.218206 0.093214 1.30058 -34.212048 -0.287566 0.967172 -20.033209 0.964536 1.212844 -0.0 -0.0 0.0 -3.440388 0.788233 0.501655 -15.928185 -3.16731 2.999708 -6.338825 -1e-06 1e-06 -18.123444 3.648181 -4.905669 -3e-06 0.0 -2e-06 10.861983 13.118582 16.292231 61.897511 19.23315 3.527716 -0.177843 26.772074 -0.207034 -14.516365 1.524542 1.622629 2.24354 -5.255034 -3.180156 14.282887 -0.826595 6.952499 -2e-06 -12.6906 1e-06 16.151808 -17.907864 2.842993 1.665664 -1.955918 -2.878298 4.727797 -4.170587 4.993923 11.02052 4e-06 -2e-06 12.109046 -3.735713 -2.866782 -1e-06 1e-06 -1e-06 1.291985 -1.928546 -1.498089 14.800123 0.567469 3.865607 14.242567 -1.341734 -6.660656 19.631962 0.143927 -0.648246 49.600765 -0.402656 -6.154006 0.35303 -1.511152 -0.031941 20.222784 3.684308 2.316628 18.787266 4e-06 -1e-06 10.751625 -0.479868 1.397905 -0.0 -1e-06 -0.0 3.273806 0.305949 -0.580109 21.486803 11.830368 2.266132 8.162924 2e-06 -1e-06 18.399075 -3.798985 -4.940572 3e-06 1e-06 -1e-06 1.728464 0.058687 -18.169378 0.248512 0.412229 49.436905 -6.453183 12.292613 4.905298 1.976873 -2.085286 -5.830458 -0.0 1e-06 2e-06 6.721358 -5.545015 9.800982 0.085053 -0.370894 0.713876 -1.957864 -7.995792 -3.274383 -1.428758 0.933597 -1.221788 0.0 0.0 -1e-06 
0.0 0.0 0.0 0.0 -0.0 0.0 23.035196 100.032112 635.262939 -1.541526 0.759225 -7.561376 0.649546 0.948138 2.431307 -0.15977 2.786745 -3.900413 0.341978 0.430071 12.646551 0.535791 2.420043 8.397079 0.22929 1.847741 -3.955096 1.050678 1.070758 -9.005107 7.7e-05 -2.3e-05 6e-06 -0.02652 -0.207733 0.00369 0.586461 -3.954755 -10.79029 -0.640119 3.544662 -10.80676 -8.431725 -0.314142 15.307853 -75.503845 -0.2195 3.361507 0.407066 -23.200155 -0.050493 16.725796 1.642967 -5.226096 -5.88211 9.86129 0.702591 -10.936878 -0.360575 7.15621 1e-06 8.77483 -1e-06 -16.189217 18.574472 6.034819 -1.844034 2.498506 -2.507279 -10.163604 4.678947 4.621112 -20.976036 -4e-06 2e-06 -21.226299 2.451697 -3.594002 1e-06 -6e-06 -0.0 -1.362682 2.240799 -0.746324 -21.334925 0.58491 3.008325 -13.82122 -3e-06 2e-06 -23.887184 -0.249079 -0.839483 -60.972839 3.082358 -1.879341 -0.294026 1.679688 0.833256 -14.218217 0.093215 1.300581 -34.212074 -0.287564 0.967172 -20.033226 0.964537 1.212844 0.0 -0.0 0.0 -3.440391 0.788234 0.501656 -15.928198 -3.167311 2.999709 -6.33883 -1e-06 1e-06 -18.123457 3.648183 -4.905673 -3e-06 -0.0 -2e-06 9.659678 13.734362 15.701932 62.438183 20.24091 3.208609 -0.495074 28.118177 -0.363418 -15.896181 2.097466 1.567739 2.243544 -5.255041 -3.180161 14.282901 -0.826595 6.952511 -2e-06 -12.690615 1e-06 16.050539 -17.807171 2.926237 1.665668 -1.955922 -2.878301 4.727803 -4.17059 4.993929 11.020536 2e-06 -0.0 12.109062 -3.73572 -2.866786 -1e-06 -0.0 -1e-06 1.291986 -1.92855 -1.498088 14.800139 0.567468 3.86561 14.242584 -1.341736 -6.660664 19.631985 0.143927 -0.648243 49.773033 -0.375975 -5.886622 0.353029 -1.51115 -0.03194 20.222809 3.684313 2.316632 18.787289 4e-06 0.0 10.751637 -0.479869 1.397908 -1e-06 0.0 2e-06 3.27381 0.305948 -0.580111 21.486834 11.830385 2.266135 8.162935 -0.0 -1e-06 18.399099 -3.79899 -4.940578 3e-06 -0.0 -1e-06 0.540794 -1.120559 -19.484993 0.147505 0.302918 39.970787 -3.230267 16.402086 5.331829 1.849574 -2.019419 -5.221745 -0.0 -0.0 1e-06 5.559775 -4.705282 11.961619 0.093559 -0.271067 -0.475786 -1.129823 -7.810117 -4.711279 -1.411814 0.970216 -1.165803 -0.0 0.0 -1e-06 
0.0 0.0 0.0 0.0 -0.0 0.0 23.373426 99.953575 639.327148 -0.750881 -0.053024 -6.764297 0.429085 0.94714 1.951028 -0.216464 3.167483 -4.087828 0.113387 0.602033 12.33152 -0.042513 2.842358 8.373672 0.389767 2.049201 -3.980704 0.740278 1.513561 -8.234944 7.7e-05 -2.3e-05 6e-06 -0.021189 -0.229159 -0.009573 0.577491 -3.977616 -10.806008 -0.619832 3.522084 -10.827935 -8.415013 0.289543 15.315707 -76.495529 1.820748 1.379035 0.519597 -23.481754 -0.112603 16.970087 1.55292 -5.36717 -5.882112 9.86129 0.70259 -10.936881 -0.360575 7.156211 1e-06 8.77483 -1e-06 -15.892362 18.583435 6.210678 -1.844033 2.498506 -2.50728 -10.16361 4.678947 4.621112 -20.976044 -4e-06 3e-06 -21.226305 2.451698 -3.594001 -0.0 -6e-06 -1e-06 -1.362683 2.240799 -0.746324 -21.334938 0.58491 3.008327 -13.821229 -3e-06 3e-06 -23.887199 -0.249079 -0.839482 -61.031586 3.167176 -2.047314 -0.294026 1.679688 0.833256 -14.218223 0.093215 1.300582 -34.212082 -0.287564 0.967173 -20.033232 0.964538 1.212846 0.0 0.0 -0.0 -3.440392 0.788234 0.501656 -15.928203 -3.167311 2.99971 -6.338833 -1e-06 1e-06 -18.123463 3.648183 -4.905673 -4e-06 -0.0 -2e-06 8.715999 14.100202 15.366621 63.265564 20.744158 3.111701 -0.706068 29.317699 -0.456934 -17.184048 2.999975 2.402932 2.243544 -5.25504 -3.180161 14.282896 -0.826594 6.952507 -3e-06 -12.690612 1e-06 15.956555 -17.820837 2.962067 1.665668 -1.955923 -2.878302 4.727801 -4.170589 4.993928 11.020531 4e-06 -4e-06 12.109057 -3.735717 -2.866787 -0.0 -0.0 -0.0 1.291986 -1.928552 -1.498092 14.800136 0.567469 3.865611 14.24258 -1.341734 -6.660661 19.631979 0.143929 -0.648244 49.788506 -0.357353 -5.762753 0.353029 -1.511152 -0.031941 20.222803 3.684311 2.316631 18.787287 4e-06 -1e-06 10.751634 -0.479869 1.397907 -0.0 0.0 2e-06 3.273808 0.305947 -0.580112 21.486826 11.830384 2.266133 8.16293 1e-06 -1e-06 18.399092 -3.798986 -4.940577 2e-06 -0.0 -2e-06 0.120007 -2.10554 -20.108711 0.063209 0.310347 29.26438 1.219038 19.744158 6.165244 1.763833 -1.932189 -4.407859 -0.0 -2e-06 2e-06 4.567103 -3.831271 13.462834 0.074453 -0.242316 -1.244517 -0.334349 -7.455364 -5.872864 -1.402903 0.996424 -1.036728 -0.0 0.0 -1e-06 
0.0 0.0 0.0 0.0 -0.0 0.0 23.629917 99.620171 643.146973 -0.204747 -0.529874 -5.854129 0.296431 0.856213 1.467025 -0.275676 3.322436 -4.283565 -0.089315 0.697795 11.990012 -0.451182 3.195089 7.896507 0.475139 2.09319 -4.009126 0.432317 1.944901 -7.748584 7.7e-05 -2.2e-05 6e-06 -0.018744 -0.257692 -0.016354 0.573211 -4.009727 -10.80217 -0.61114 3.493533 -10.825328 -8.582834 0.566277 15.25743 -76.956963 3.690836 -0.93119 0.567172 -23.366711 -0.129224 16.864235 1.561936 -4.530585 -5.882109 9.86129 0.702591 -10.936875 -0.360575 7.156209 1e-06 8.77483 -1e-06 -15.748306 18.46575 6.339639 -1.844032 2.498506 -2.507279 -10.163602 4.678946 4.621111 -20.97603 -4e-06 2e-06 -21.226292 2.451697 -3.594002 -0.0 -6e-06 -0.0 -1.362682 2.240799 -0.746324 -21.334921 0.584909 3.008324 -13.821218 -3e-06 2e-06 -23.887178 -0.249079 -0.839483 -61.104698 3.202741 -2.053602 -0.294024 1.679688 0.833256 -14.218215 0.093215 1.300581 -34.212067 -0.287564 0.967171 -20.033218 0.964537 1.212845 0.0 -0.0 -0.0 -3.44039 0.788234 0.501656 -15.928192 -3.167311 2.999709 -6.338829 -1e-06 1e-06 -18.123453 3.648184 -4.905672 -4e-06 0.0 -2e-06 8.09004 14.193188 15.267241 64.010788 21.27206 3.851557 -0.716023 29.916389 -0.510691 -18.309687 3.97908 3.2734 2.24354 -5.255033 -3.180156 14.282887 -0.826594 6.952502 -3e-06 -12.690601 -1e-06 15.905282 -17.940214 3.055976 1.665665 -1.95592 -2.878298 4.727798 -4.170588 4.993924 11.020522 4e-06 -1e-06 12.10905 -3.735715 -2.866781 -0.0 2e-06 1e-06 1.291987 -1.928551 -1.498091 14.800127 0.567469 3.865607 14.242569 -1.341735 -6.660655 19.631966 0.143926 -0.648243 49.9468 -0.368306 -5.665625 0.353028 -1.511148 -0.031941 20.222792 3.684309 2.31663 18.78727 5e-06 1e-06 10.751625 -0.479867 1.397908 1e-06 -0.0 -0.0 3.273806 0.305947 -0.580112 21.486811 11.830371 2.266134 8.162926 0.0 1e-06 18.39908 -3.798985 -4.940572 1e-06 -2e-06 -2e-06 0.212678 -2.296296 -20.29571 -0.033684 0.372172 18.354517 4.546355 20.911646 5.441278 1.685513 -1.873557 -3.589116 0.0 0.0 2e-06 3.859448 -3.126012 14.633793 0.042599 -0.266076 -1.388078 0.299323 -7.39816 -7.355895 -1.406051 0.999606 -1.054672 -0.0 0.0 -1e-06 
